<?xml version="1.0" encoding="UTF-8" standalone="no"?>
<svg
   xmlns:dc="http://purl.org/dc/elements/1.1/"
   xmlns:cc="http://creativecommons.org/ns#"
   xmlns:rdf="http://www.w3.org/1999/02/22-rdf-syntax-ns#"
   xmlns:svg="http://www.w3.org/2000/svg"
   xmlns="http://www.w3.org/2000/svg"
   xmlns:inkscape="http://www.inkscape.org/namespaces/inkscape"
   version="1.1"
   width="531.5"
   height="117.95"
   id="svg2"
   viewBox="0 0 531.5 117.95"
   xml:space="preserve"><metadata
     id="metadata8"><rdf:RDF><cc:Work
         rdf:about=""><dc:format>image/svg+xml</dc:format><dc:type
           rdf:resource="http://purl.org/dc/dcmitype/StillImage" /></cc:Work></rdf:RDF></metadata><defs
     id="defs6"><clipPath
       id="clipPath18"><path
         d="M 0,943.609 0,0 l 4251.97,0 0,943.609"
         inkscape:connector-curvature="0"
         id="path20" /></clipPath></defs><g
     transform="matrix(1.25,0,0,-1.25,0,117.95)"
     id="g10"><g
       transform="scale(0.1,0.1)"
       id="g12"><g
         id="g14"><g
           clip-path="url(#clipPath18)"
           id="g16"><path
             d="m 0,674.066 83.7891,0 0,-117.773 c 33.9839,45.043 71.4879,78.734 112.6519,100.93 41.161,22.191 85.985,33.25 134.477,33.25 49.219,0 92.871,-12.45 130.957,-37.426 38.23,-24.977 66.363,-58.594 84.527,-100.856 18.164,-42.265 27.246,-108.109 27.246,-197.394 l 0,-338.3908 -83.941,0 0,313.4848 c 0,75.734 -3.223,126.281 -9.812,151.691 -10.254,43.438 -29.297,76.176 -57.129,98.148 -27.832,21.899 -64.161,32.887 -108.993,32.887 -51.269,0 -97.117,-16.918 -137.695,-50.683 C 135.496,528.023 108.84,486.195 95.9492,436.25 87.8906,403.719 83.7891,343.953 83.7891,257.527 l 0,-241.1208 -83.7891,0 0,657.6598"
             inkscape:connector-curvature="0"
             id="path22"
             style="fill:#348ec9;fill-opacity:1;fill-rule:nonzero;stroke:none" /><path
             d="m 740.938,674.066 83.933,0 0,-657.6598 -83.933,0 0,657.6598 z m 41.75,269.543 c 19.042,0 35.3,-6.812 48.921,-20.437 13.481,-13.695 20.215,-30.176 20.215,-49.516 0,-18.894 -6.734,-35.156 -20.215,-48.777 -13.621,-13.699 -29.879,-20.508 -48.921,-20.508 -18.75,0 -34.868,6.809 -48.34,20.508 -13.481,13.621 -20.364,29.883 -20.364,48.777 0,19.34 6.883,35.821 20.364,49.516 13.472,13.625 29.59,20.437 48.34,20.437"
             inkscape:connector-curvature="0"
             id="path24"
             style="fill:#348ec9;fill-opacity:1;fill-rule:nonzero;stroke:none" /><path
             d="m 993.629,674.066 83.941,0 0,-117.773 c 33.84,45.043 71.48,78.734 112.64,100.93 41.17,22.191 86,33.25 134.34,33.25 49.21,0 93.01,-12.45 131.1,-37.426 38.09,-24.977 66.36,-58.594 84.53,-100.856 18.16,-42.265 27.1,-108.109 27.1,-197.394 l 0,-338.3908 -83.79,0 0,313.4848 c 0,75.734 -3.23,126.281 -9.82,151.691 -10.25,43.438 -29.29,76.176 -57.13,98.148 -27.83,21.899 -64.16,32.887 -108.99,32.887 -51.27,0 -97.12,-16.918 -137.7,-50.683 -40.57,-33.911 -67.23,-75.739 -80.12,-125.684 -8.21,-32.531 -12.16,-92.297 -12.16,-178.723 l 0,-241.1208 -83.941,0 0,657.6598"
             inkscape:connector-curvature="0"
             id="path26"
             style="fill:#348ec9;fill-opacity:1;fill-rule:nonzero;stroke:none" /><path
             d="m 2294.01,411.922 c -11.43,44.98 -27.83,81.012 -49.52,107.89 -21.68,26.887 -50.39,48.641 -85.99,65.118 -35.59,16.48 -73.09,24.683 -112.21,24.683 -64.89,0 -120.56,-20.726 -166.99,-62.035 -34.13,-30.176 -59.77,-75.371 -77.2,-135.656 l 491.91,0 z m -1.03,-176.66 71.34,-37.5 c -23.29,-45.996 -50.39,-83.055 -81,-111.3284 C 2252.85,58.3008 2218.27,36.7656 2180.03,22.1172 2141.8,7.32422 2098.44,0 2050.25,0 c -107.23,0 -190.87,35.1562 -251.37,105.332 -60.36,70.168 -90.54,149.559 -90.54,238.035 0,83.352 25.49,157.625 76.76,222.813 64.9,82.91 151.77,124.293 260.61,124.293 112.06,0 201.57,-42.481 268.51,-127.368 47.61,-59.992 71.78,-134.765 72.51,-224.57 l -592.98,0 c 1.46,-76.32 25.93,-138.723 73.24,-187.5 47.32,-48.781 105.62,-73.0975 175.2,-73.0975 33.55,0 66.07,5.8594 97.85,17.4336 31.64,11.5699 58.6,27.0979 80.86,46.4339 22.28,19.336 46.3,50.39 72.08,93.457"
             inkscape:connector-curvature="0"
             id="path28"
             style="fill:#348ec9;fill-opacity:1;fill-rule:nonzero;stroke:none" /><path
             d="m 2635.91,149.715 c 20.51,0 38.09,-7.176 52.44,-21.68 14.51,-14.5 21.83,-32.2264 21.83,-53.0272 0,-20.6523 -7.32,-38.2422 -21.83,-53.0351 C 2674,7.32422 2656.42,0 2635.91,0 c -20.5,0 -37.95,7.32422 -52.45,21.9727 -14.35,14.7929 -21.68,32.3828 -21.68,53.0351 0,20.8008 7.33,38.5272 21.68,53.0272 14.5,14.504 31.95,21.68 52.45,21.68"
             inkscape:connector-curvature="0"
             id="path30"
             style="fill:#348ec9;fill-opacity:1;fill-rule:nonzero;stroke:none" /><path
             d="m 3514.4,539.008 -66.94,-41.68 c -58.01,76.836 -136.98,115.289 -237.03,115.289 -79.98,0 -146.48,-25.781 -199.36,-77.418 -52.89,-51.64 -79.26,-114.34 -79.26,-188.023 0,-48.047 12.16,-93.164 36.48,-135.645 24.32,-42.187 57.72,-75.144 100.05,-98.437 42.49,-23.4378 90.09,-35.1565 142.68,-35.1565 96.53,0 175.21,38.3785 236.44,115.2855 l 66.94,-44.094 C 3483.05,101.961 3440.86,65.1953 3387.98,39.1094 3335.09,13.0352 3274.89,0 3207.36,0 3103.5,0 3017.37,33.1055 2948.95,99.0312 2880.69,164.949 2846.41,245.223 2846.41,339.852 c 0,63.574 15.97,122.617 48.05,177.109 31.93,54.566 75.88,97.121 131.84,127.664 55.81,30.613 118.36,45.848 187.65,45.848 43.36,0 85.4,-6.516 125.83,-19.629 40.44,-13.184 74.72,-30.25 102.84,-51.34 28.13,-21.098 52.15,-47.902 71.78,-80.496"
             inkscape:connector-curvature="0"
             id="path32"
             style="fill:#348ec9;fill-opacity:1;fill-rule:nonzero;stroke:none" /><path
             d="m 3678.32,927.203 83.94,0 0,-371.422 c 34.28,45.117 71.92,78.809 113.23,101.223 41.17,22.336 85.7,33.469 133.74,33.469 49.22,0 92.88,-12.45 131.12,-37.426 38.08,-24.977 66.21,-58.449 84.37,-100.488 18.17,-42.121 27.25,-108.039 27.25,-197.762 l 0,-338.3908 -83.79,0 0,313.4848 c 0,75.734 -3.08,126.281 -9.08,151.691 -10.55,43.438 -29.74,76.176 -57.43,98.148 -27.69,21.899 -64.02,32.887 -108.84,32.887 -51.42,0 -97.41,-16.918 -138.14,-50.683 -40.57,-33.911 -67.38,-75.739 -80.27,-125.684 -8.2,-32.238 -12.16,-91.707 -12.16,-178.723 l 0,-241.1208 -83.94,0 0,910.7968"
             inkscape:connector-curvature="0"
             id="path34"
             style="fill:#348ec9;fill-opacity:1;fill-rule:nonzero;stroke:none" /></g></g></g></g></svg>
